<svg xmlns="http://www.w3.org/2000/svg" width="900" height="560" viewBox="0 0 900 560" fill="none">
  <defs>
    <linearGradient id="bg" x1="70" y1="48" x2="830" y2="512" gradientUnits="userSpaceOnUse">
      <stop stop-color="#E7F1FF"/>
      <stop offset="0.48" stop-color="#D8E8FF"/>
      <stop offset="1" stop-color="#F3E5FF"/>
    </linearGradient>
    <linearGradient id="accent" x1="0" y1="0" x2="1" y2="1">
      <stop stop-color="#2947A5"/>
      <stop offset="1" stop-color="#6A7CFF"/>
    </linearGradient>
  </defs>
  <rect x="20" y="20" width="860" height="520" rx="28" fill="url(#bg)"/>
  <rect x="20" y="20" width="860" height="520" rx="28" stroke="#C7D7F2" stroke-width="8"/>
  <rect x="52" y="52" width="796" height="86" rx="18" fill="url(#accent)"/>
  <text x="78" y="104" fill="#FFFFFF" font-family="Arial, Helvetica, sans-serif" font-size="40" font-weight="700">USA DRIVER LICENSE</text>
  <text x="676" y="104" fill="#D8E5FF" font-family="Arial, Helvetica, sans-serif" font-size="22" font-weight="700">CLASS C</text>
  <rect x="60" y="164" width="250" height="308" rx="18" fill="#B7CCE7"/>
  <rect x="82" y="186" width="206" height="264" rx="14" fill="#E8D4C3"/>
  <circle cx="184" cy="250" r="58" fill="#F6D8C4"/>
  <rect x="136" y="320" width="96" height="92" rx="38" fill="#1F446D" fill-opacity="0.18"/>
  <rect x="136" y="390" width="96" height="20" rx="10" fill="#1F446D" fill-opacity="0.18"/>
  <rect x="350" y="170" width="468" height="32" rx="12" fill="#8BA7D7" fill-opacity="0.26"/>
  <rect x="350" y="220" width="400" height="24" rx="10" fill="#7E92B6" fill-opacity="0.22"/>
  <rect x="350" y="258" width="430" height="24" rx="10" fill="#7E92B6" fill-opacity="0.22"/>
  <rect x="350" y="296" width="370" height="24" rx="10" fill="#7E92B6" fill-opacity="0.22"/>
  <rect x="350" y="346" width="202" height="20" rx="10" fill="#5276A9" fill-opacity="0.24"/>
  <rect x="574" y="346" width="202" height="20" rx="10" fill="#5276A9" fill-opacity="0.24"/>
  <rect x="350" y="382" width="202" height="20" rx="10" fill="#5276A9" fill-opacity="0.24"/>
  <rect x="574" y="382" width="202" height="20" rx="10" fill="#5276A9" fill-opacity="0.24"/>
  <path d="M356 438C418 408 468 406 530 438" stroke="#26438C" stroke-width="6" stroke-linecap="round"/>
  <rect x="350" y="454" width="250" height="10" rx="5" fill="#26438C" fill-opacity="0.3"/>
  <circle cx="744" cy="438" r="44" fill="#A9BAE3" fill-opacity="0.5"/>
  <circle cx="744" cy="438" r="30" stroke="#4A67B1" stroke-width="4" stroke-dasharray="5 5"/>
  <text x="86" y="494" fill="#37558C" font-family="Arial, Helvetica, sans-serif" font-size="24" font-weight="700">FRONT SAMPLE</text>
</svg>
